<?xml version="1.0" encoding="UTF-8"?>
<svg version="1.1" xmlns="http://www.w3.org/2000/svg" width="393" height="393">
<path d="M0 0 C129.03 0 258.06 0 391 0 C391 129.03 391 258.06 391 391 C261.97 391 132.94 391 0 391 C0 261.97 0 132.94 0 0 Z " fill="#E15712" transform="translate(1,1)"/>
<path d="M0 0 C8.25 0 16.5 0 25 0 C25 80.85 25 161.7 25 245 C16.75 245 8.5 245 0 245 C0 261.17 0 277.34 0 294 C-7.92 294 -15.84 294 -24 294 C-24 318.09 -24 342.18 -24 367 C-32.25 367 -40.5 367 -49 367 C-49 350.83 -49 334.66 -49 318 C-73.09 318 -97.18 318 -122 318 C-122 310.08 -122 302.16 -122 294 C-138.17 294 -154.34 294 -171 294 C-171 285.75 -171 277.5 -171 269 C-178.92 269 -186.84 269 -195 269 C-195 188.48 -195 107.96 -195 25 C-130.65 25 -66.3 25 0 25 C0 16.75 0 8.5 0 0 Z " fill="#E15712" transform="translate(221,1)"/>
<path d="M0 0 C48.18 0 96.36 0 146 0 C146 8.25 146 16.5 146 25 C138.08 25 130.16 25 122 25 C122 57.34 122 89.68 122 123 C97.91 123 73.82 123 49 123 C49 114.75 49 106.5 49 98 C40.75 98 32.5 98 24 98 C24 114.17 24 130.34 24 147 C56.34 147 88.68 147 122 147 C122 155.25 122 163.5 122 172 C89.66 172 57.32 172 24 172 C24 196.09 24 220.18 24 245 C16.08 245 8.16 245 0 245 C0 164.15 0 83.3 0 0 Z " fill="#E7D1B4" transform="translate(246,1)"/>
<path d="M0 0 C7.92 0 15.84 0 24 0 C24 120.78 24 241.56 24 366 C-32.43 366 -88.86 366 -147 366 C-147 358.08 -147 350.16 -147 342 C-106.74 342 -66.48 342 -25 342 C-25 334.08 -25 326.16 -25 318 C-16.75 318 -8.5 318 0 318 C0 253.32 0 188.64 0 122 C-32.34 122 -64.68 122 -98 122 C-98 105.83 -98 89.66 -98 73 C-89.75 73 -81.5 73 -73 73 C-73 81.25 -73 89.5 -73 98 C-48.91 98 -24.82 98 0 98 C0 65.66 0 33.32 0 0 Z " fill="#020100" transform="translate(368,26)"/>
<path d="M0 0 C72.6 0 145.2 0 220 0 C220 8.25 220 16.5 220 25 C155.65 25 91.3 25 25 25 C25 105.52 25 186.04 25 269 C32.92 269 40.84 269 49 269 C49 277.25 49 285.5 49 294 C41.08 294 33.16 294 25 294 C25 326.01 25 358.02 25 391 C16.75 391 8.5 391 0 391 C0 261.97 0 132.94 0 0 Z " fill="#E7D2B4" transform="translate(1,1)"/>
<path d="M0 0 C32.34 0 64.68 0 98 0 C98 32.34 98 64.68 98 98 C73.91 98 49.82 98 25 98 C25 89.75 25 81.5 25 73 C16.75 73 8.5 73 0 73 C0 48.91 0 24.82 0 0 Z " fill="#E05713" transform="translate(270,26)"/>
<path d="M0 0 C24.09 0 48.18 0 73 0 C73 7.92 73 15.84 73 24 C97.09 24 121.18 24 146 24 C146 40.17 146 56.34 146 73 C97.82 73 49.64 73 0 73 C0 48.91 0 24.82 0 0 Z " fill="#E05714" transform="translate(26,295)"/>
<path d="M0 0 C8.25 0 16.5 0 25 0 C25 80.85 25 161.7 25 245 C16.75 245 8.5 245 0 245 C0 164.15 0 83.3 0 0 Z " fill="#030100" transform="translate(221,1)"/>
<path d="M0 0 C64.35 0 128.7 0 195 0 C195 8.25 195 16.5 195 25 C130.65 25 66.3 25 0 25 C0 16.75 0 8.5 0 0 Z " fill="#E8D2B3" transform="translate(26,1)"/>
<path d="M0 0 C48.18 0 96.36 0 146 0 C146 8.25 146 16.5 146 25 C97.82 25 49.64 25 0 25 C0 16.75 0 8.5 0 0 Z " fill="#E8D1B3" transform="translate(246,1)"/>
<path d="M0 0 C32.34 0 64.68 0 98 0 C98 24.09 98 48.18 98 73 C89.75 73 81.5 73 73 73 C73 56.83 73 40.66 73 24 C48.91 24 24.82 24 0 24 C0 16.08 0 8.16 0 0 Z " fill="#040100" transform="translate(99,295)"/>
<path d="M0 0 C48.18 0 96.36 0 146 0 C146 7.92 146 15.84 146 24 C97.82 24 49.64 24 0 24 C0 16.08 0 8.16 0 0 Z " fill="#020100" transform="translate(26,368)"/>
<path d="M0 0 C7.92 0 15.84 0 24 0 C24 32.01 24 64.02 24 97 C7.83 97 -8.34 97 -25 97 C-25 89.08 -25 81.16 -25 73 C-16.75 73 -8.5 73 0 73 C0 48.91 0 24.82 0 0 Z " fill="#E6D3B3" transform="translate(197,295)"/>
<path d="M0 0 C7.92 0 15.84 0 24 0 C24 32.34 24 64.68 24 98 C16.08 98 8.16 98 0 98 C0 65.66 0 33.32 0 0 Z " fill="#020100" transform="translate(368,26)"/>
<path d="M0 0 C7.92 0 15.84 0 24 0 C24 32.34 24 64.68 24 98 C16.08 98 8.16 98 0 98 C0 65.66 0 33.32 0 0 Z " fill="#E7D2B5" transform="translate(246,26)"/>
<path d="M0 0 C24.09 0 48.18 0 73 0 C73 8.25 73 16.5 73 25 C48.91 25 24.82 25 0 25 C0 16.75 0 8.5 0 0 Z " fill="#E7D1B4" transform="translate(99,319)"/>
<path d="M0 0 C16.17 0 32.34 0 49 0 C49 8.25 49 16.5 49 25 C32.83 25 16.66 25 0 25 C0 16.75 0 8.5 0 0 Z " fill="#040100" transform="translate(50,270)"/>
<path d="M0 0 C8.25 0 16.5 0 25 0 C25 16.17 25 32.34 25 49 C16.75 49 8.5 49 0 49 C0 32.83 0 16.66 0 0 Z " fill="#E7D1B4" transform="translate(221,246)"/>
<path d="M0 0 C16.17 0 32.34 0 49 0 C49 7.92 49 15.84 49 24 C32.83 24 16.66 24 0 24 C0 16.08 0 8.16 0 0 Z " fill="#E7D1B4" transform="translate(50,295)"/>
<path d="M0 0 C7.92 0 15.84 0 24 0 C24 16.17 24 32.34 24 49 C16.08 49 8.16 49 0 49 C0 32.83 0 16.66 0 0 Z " fill="#020200" transform="translate(197,246)"/>
<path d="M0 0 C8.25 0 16.5 0 25 0 C25 8.25 25 16.5 25 25 C16.75 25 8.5 25 0 25 C0 16.75 0 8.5 0 0 Z " fill="#E05613" transform="translate(1,1)"/>
<path d="M0 0 C8.25 0 16.5 0 25 0 C25 7.92 25 15.84 25 24 C16.75 24 8.5 24 0 24 C0 16.08 0 8.16 0 0 Z " fill="#DE5817" transform="translate(172,368)"/>
<path d="M0 0 C8.25 0 16.5 0 25 0 C25 7.92 25 15.84 25 24 C16.75 24 8.5 24 0 24 C0 16.08 0 8.16 0 0 Z " fill="#DF5817" transform="translate(1,368)"/>
<path d="M0 0 C7.92 0 15.84 0 24 0 C24 8.25 24 16.5 24 25 C16.08 25 8.16 25 0 25 C0 16.75 0 8.5 0 0 Z " fill="#DF5814" transform="translate(246,1)"/>
<path d="M0 0 C7.92 0 15.84 0 24 0 C24 8.25 24 16.5 24 25 C16.08 25 8.16 25 0 25 C0 16.75 0 8.5 0 0 Z " fill="#E15918" transform="translate(368,1)"/>
<path d="M0 0 C7.92 0 15.84 0 24 0 C24 7.92 24 15.84 24 24 C16.08 24 8.16 24 0 24 C0 16.08 0 8.16 0 0 Z " fill="#DE5815" transform="translate(368,368)"/>
<path d="M0 0 C7.92 0 15.84 0 24 0 C24 7.92 24 15.84 24 24 C16.08 24 8.16 24 0 24 C0 16.08 0 8.16 0 0 Z " fill="#040100" transform="translate(26,246)"/>
<path d="M0 0 C7.92 0 15.84 0 24 0 C24 7.92 24 15.84 24 24 C16.08 24 8.16 24 0 24 C0 16.08 0 8.16 0 0 Z " fill="#DF5917" transform="translate(368,124)"/>
<path d="M0 0 C7.92 0 15.84 0 24 0 C24 7.92 24 15.84 24 24 C16.08 24 8.16 24 0 24 C0 16.08 0 8.16 0 0 Z " fill="#DE5816" transform="translate(246,124)"/>
<path d="M0 0 C7.92 0 15.84 0 24 0 C24 0.33 24 0.66 24 1 C16.74 1 9.48 1 2 1 C2.10699219 4.29742187 2.21398437 7.59484375 2.32421875 10.9921875 C2.41714455 14.17585556 2.50484841 17.35962742 2.59204102 20.54345703 C2.65558242 22.7610684 2.72457641 24.97853037 2.79907227 27.19580078 C2.90504065 30.37769719 2.99157179 33.55961076 3.07421875 36.7421875 C3.11157639 37.73805878 3.14893402 38.73393005 3.18742371 39.75997925 C3.20767105 40.68078278 3.2279184 41.6015863 3.2487793 42.55029297 C3.28541939 43.76940872 3.28541939 43.76940872 3.32279968 45.01315308 C3.21627579 45.66881256 3.10975189 46.32447205 3 47 C2.01 47.66 1.02 48.32 0 49 C0 32.83 0 16.66 0 0 Z " fill="#1A0100" transform="translate(197,246)"/>
</svg>
